<?xml version="1.0" encoding="UTF-8" standalone="no"?>
<!-- Created with Inkscape (http://www.inkscape.org/) -->

<svg
   xmlns:dc="http://purl.org/dc/elements/1.1/"
   xmlns:cc="http://creativecommons.org/ns#"
   xmlns:rdf="http://www.w3.org/1999/02/22-rdf-syntax-ns#"
   xmlns:svg="http://www.w3.org/2000/svg"
   xmlns="http://www.w3.org/2000/svg"
   xmlns:sodipodi="http://sodipodi.sourceforge.net/DTD/sodipodi-0.dtd"
   xmlns:inkscape="http://www.inkscape.org/namespaces/inkscape"
   width="84.666664mm"
   height="84.666679mm"
   viewBox="0 0 299.99999 300.00005"
   id="svg2"
   version="1.1"
   inkscape:version="0.92.4 (5da689c313, 2019-01-14)"
   sodipodi:docname="wappskafander_t2_logo.svg"
   inkscape:export-filename="C:\Martin\Projektid\logo_of_the_wappskafander_t2\wappskafander_t2_logo_1280x640.png"
   inkscape:export-xdpi="96"
   inkscape:export-ydpi="96">
  <defs
     id="defs4" />
  <sodipodi:namedview
     id="base"
     pagecolor="#ffffff"
     bordercolor="#666666"
     borderopacity="1.0"
     inkscape:pageopacity="0.0"
     inkscape:pageshadow="2"
     inkscape:zoom="1.979899"
     inkscape:cx="147.4238"
     inkscape:cy="65.091901"
     inkscape:document-units="px"
     inkscape:current-layer="layer3"
     showgrid="false"
     inkscape:window-width="1920"
     inkscape:window-height="1057"
     inkscape:window-x="-8"
     inkscape:window-y="-8"
     inkscape:window-maximized="1" />
  <metadata
     id="metadata7">
    <rdf:RDF>
      <cc:Work
         rdf:about="">
        <dc:format>image/svg+xml</dc:format>
        <dc:type
           rdf:resource="http://purl.org/dc/dcmitype/StillImage" />
        <dc:title></dc:title>
      </cc:Work>
    </rdf:RDF>
  </metadata>
  <g
     inkscape:groupmode="layer"
     id="layer3"
     inkscape:label="color_background"
     style="display:inline"
     transform="translate(-2.5319224e-6,-752.36218)">
    <path
       id="path4756-6"
       style="display:inline;fill:#262eb0;fill-opacity:1;stroke-width:0.51217562"
       d="m 120,752.36218 c 40.625,0 81.25,0 121.875,0 0,20 0,40 0,60 -40.625,0 -81.25,0 -121.875,0 0,-20 0,-40 0,-60 z m 120,0 c 20,0 40,0 60,0 0,59.99999 0,119.99999 0,179.99998 -20,0 -40,0 -60,0 0,-59.99999 0,-119.99999 0,-179.99998 z M 79.999687,978.2997 c 13.750001,0 27.500003,0 41.250003,0 0,13.125 0,26.25 0,39.375 -13.75,0 -27.500002,0 -41.250003,0 0,-13.125 0,-26.25 0,-39.375 z M 2.5319224e-6,907.79969 c 13.3331234680776,0 26.6662474680776,0 39.9993714680776,0 0,12.49999 0,24.99998 0,37.49997 -13.333124,0 -26.666248,0 -39.9993714680776,0 0,-12.49999 0,-24.99998 0,-37.49997 z m 0,-35.43751 c 40.6249994680776,0 81.2499984680776,0 121.8749974680776,0 0,11.99999 0,23.99999 0,35.99998 -40.624999,0 -81.249998,0 -121.8749974680776,0 0,-11.99999 0,-23.99999 0,-35.99998 z m 0,72.00001 c 40.6249994680776,0 81.2499984680776,0 121.8749974680776,0 0,12.00001 0,24.00002 0,36.00003 -40.624999,0 -81.249998,0 -121.8749974680776,0 0,-12.00001 0,-24.00002 0,-36.00003 z m 0,72.00001 c 40.6249994680776,0 81.2499984680776,0 121.8749974680776,0 0,12 0,24 0,36 -40.624999,0 -81.249998,0 -121.8749974680776,0 0,-12 0,-24 0,-36 z M 120,872.36218 c 20,0 40,0 60,0 0,60.00001 0,120.00001 0,180.00002 -20,0 -40,0 -60,0 0,-60.00001 0,-120.00001 0,-180.00002 z m 1.875,0 c 41.25,0 82.5,0 123.75,0 0,19.99999 0,39.99999 0,59.99998 -41.25,0 -82.5,0 -123.75,0 0,-19.99999 0,-39.99999 0,-59.99998 z m 57.1875,120.00001 c 40.3125,0 80.625,0 120.9375,0 0,20.00001 0,40.00001 0,60.00001 -40.3125,0 -80.625,0 -120.9375,0 0,-20 0,-40 0,-60.00001 z M 90.000004,872.36221 c -10.000001,-20 -20.000001,-40 -30.000002,-60 19.999999,0 39.999998,0 59.999998,0 -10,20 -20,40 -29.999996,60 z m -60,0 c -10.000002,-20 -19.999999,-40 -30.0000014680776,-60 19.9999994680776,0 39.9999984680776,0 59.9999974680776,0 -9.999999,20 -19.999997,40 -29.999996,60 z" />
  </g>
  <g
     inkscape:label="mmmv"
     inkscape:groupmode="layer"
     id="layer1"
     style="display:inline"
     transform="translate(-2.5319224e-6,-752.36218)" />
  <g
     inkscape:groupmode="layer"
     id="layer2"
     inkscape:label="mmmv_notes"
     style="display:inline"
     transform="translate(-2.5319224e-6,-752.36218)" />
</svg>
